<svg width="20" height="20" viewBox="0 0 24 24" fill="white" xmlns="http://www.w3.org/2000/svg">
  <path d="M12 0C5.37 0 0 5.37 0 12c0 5.3 3.438 9.8 8.207 11.387.6.113.793-.26.793-.577v-2.234c-3.338.726-4.033-1.416-4.033-1.416-.547-1.387-1.334-1.756-1.334-1.756-1.09-.746.082-.731.082-.731 1.205.086 1.84 1.24 1.84 1.24 1.07 1.834 2.807 1.304 3.492.997.108-.776.418-1.305.762-1.604-2.665-.304-5.466-1.332-5.466-5.933 0-1.31.468-2.38 1.236-3.22-.124-.303-.535-1.524.117-3.176 0 0 1.008-.322 3.3 1.23.96-.267 1.98-.4 3-.404 1.02.004 2.04.137 3 .404 2.29-1.552 3.297-1.23 3.297-1.23.653 1.652.242 2.873.12 3.176.77.84 1.236 1.91 1.236 3.22 0 4.61-2.804 5.626-5.475 5.922.43.37.823 1.096.823 2.21v3.284c0 .32.192.694.8.576C20.565 21.796 24 17.297 24 12c0-6.63-5.37-12-12-12z"/>
</svg> 