<svg width="20" height="20" viewBox="0 0 24 24" fill="white" xmlns="http://www.w3.org/2000/svg">
  <path d="M16.6 13.3c-.2-.1-1.2-.6-1.4-.7-.2-.1-.4-.1-.5.1-.1.1-.5.7-.6.8s-.2.2-.4.1c-.2-.1-.9-.3-1.7-1-.6-.6-1-1.2-1.2-1.4-.1-.2 0-.3.1-.4.1-.1.2-.2.3-.3s.1-.2.2-.3c.1-.1 0-.2 0-.3s-.5-1.3-.7-1.8c-.2-.5-.4-.4-.5-.4h-.4c-.1 0-.3 0-.5.2s-.6.6-.6 1.4c0 .8.6 1.5.7 1.6.1.1 1.2 1.9 2.9 2.6 1.7.8 1.7.5 2 .4.3 0 1-.4 1.2-.9.1-.4.1-.8.1-.9 0-.2 0-.2-.2-.3zM12 2C6.5 2 2 6.5 2 12c0 2.1.8 4.1 2.1 5.7L2 22l4.3-1.1C7.9 21.2 9.9 22 12 22c5.5 0 10-4.5 10-10S17.5 2 12 2z"/>
</svg> 